<?xml version="1.0" standalone="no"?>
<!DOCTYPE svg PUBLIC "-//W3C//DTD SVG 20010904//EN"
 "http://www.w3.org/TR/2001/REC-SVG-20010904/DTD/svg10.dtd">
<svg version="1.0" xmlns="http://www.w3.org/2000/svg"
 width="756.000000pt" height="756.000000pt" viewBox="0 0 756.000000 756.000000"
 preserveAspectRatio="xMidYMid meet">
<metadata>
Created by potrace 1.14, written by Peter Selinger 2001-2017
</metadata>
<g transform="translate(0.000000,756.000000) scale(0.100000,-0.100000)"
fill="#000000" stroke="none">
<path d="M2809 6526 c-2 -2 -31 -6 -64 -10 -92 -10 -114 -14 -205 -35 -103
-24 -228 -65 -294 -97 -28 -13 -56 -24 -63 -24 -7 0 -13 -3 -13 -8 0 -4 -20
-16 -45 -27 -25 -11 -45 -23 -45 -27 0 -5 -4 -8 -10 -8 -11 0 -60 -33 -122
-81 -80 -63 -119 -100 -211 -202 -47 -52 -143 -202 -167 -262 -21 -53 -31 -61
-82 -70 -13 -3 -54 -14 -93 -25 -38 -11 -77 -22 -85 -24 -42 -11 -226 -89
-304 -130 -86 -44 -244 -146 -316 -203 -51 -42 -232 -222 -265 -267 -17 -22
-39 -51 -51 -65 -29 -37 -81 -117 -100 -154 -9 -18 -20 -34 -23 -37 -7 -5
-101 -204 -101 -213 0 -3 -5 -18 -12 -34 -6 -15 -12 -30 -13 -33 -1 -3 -5 -12
-8 -20 -9 -22 -54 -189 -63 -235 -4 -22 -8 -42 -9 -45 -1 -3 -5 -34 -9 -70 -5
-36 -11 -74 -13 -85 -10 -38 -12 -390 -4 -435 5 -25 11 -61 14 -80 9 -53 42
-179 62 -230 47 -120 146 -310 167 -318 4 -2 8 -8 8 -14 0 -18 129 -175 213
-260 45 -46 118 -111 162 -146 44 -35 88 -70 98 -78 9 -8 20 -14 23 -14 3 0
20 -11 38 -25 18 -14 38 -25 44 -25 7 0 12 -4 12 -9 0 -19 329 -172 460 -215
260 -85 451 -111 743 -105 60 2 89 14 34 15 -36 1 -152 14 -182 21 -11 2 -33
7 -50 10 -108 19 -351 117 -460 185 -167 106 -330 255 -438 401 -31 42 -57 79
-57 81 0 3 -12 22 -26 43 -31 46 -114 217 -114 236 0 7 -4 17 -9 22 -9 9 -26
67 -52 170 -27 107 -42 235 -42 360 0 88 10 232 17 243 2 4 7 25 10 47 14 89
68 265 89 293 5 6 7 12 3 12 -13 0 103 209 164 295 103 145 288 321 425 405
22 13 43 29 47 34 4 6 8 7 8 3 0 -5 13 1 29 12 16 12 31 21 34 21 3 0 13 -26
23 -57 9 -32 35 -94 57 -138 163 -332 484 -546 1112 -740 83 -26 159 -50 170
-55 11 -4 81 -27 155 -50 273 -85 479 -176 693 -306 51 -32 87 -48 87 -40 0
14 -145 455 -183 556 -31 83 -75 185 -143 329 -30 62 -54 117 -54 122 0 5 -5
9 -12 9 -6 0 -8 3 -5 6 3 4 0 16 -8 28 -20 27 -19 40 3 31 9 -4 24 -8 32 -10
8 -2 38 -11 65 -20 28 -10 55 -18 60 -20 6 -1 23 -7 38 -13 16 -7 35 -12 43
-12 8 0 22 -4 32 -9 16 -9 46 -21 67 -27 51 -14 197 -75 350 -145 28 -13 53
-22 58 -21 4 1 7 -2 7 -8 0 -5 5 -10 11 -10 21 0 399 -191 554 -280 22 -12 56
-31 75 -42 19 -11 49 -27 65 -37 17 -10 48 -28 70 -41 22 -12 85 -49 141 -81
55 -33 104 -59 107 -59 12 0 -181 186 -264 255 -61 51 -161 126 -234 175 -44
30 -81 58 -83 63 -2 4 -7 7 -12 7 -5 0 -44 22 -87 48 -259 161 -589 310 -938
427 -77 25 -147 48 -156 50 -9 2 -34 8 -55 15 -52 15 -225 61 -244 65 -8 2
-33 8 -55 13 -22 6 -53 13 -70 16 -16 3 -41 7 -55 11 -79 19 -109 22 -102 11
4 -6 33 -51 65 -99 33 -48 121 -210 196 -360 76 -150 148 -289 160 -311 12
-21 21 -40 19 -41 -2 -1 -30 10 -63 26 -141 67 -260 120 -352 159 -54 23 -111
48 -128 55 -16 8 -58 25 -91 39 -112 46 -187 97 -279 190 -181 182 -277 407
-280 656 -1 63 1 120 4 125 3 6 7 18 8 28 23 143 157 336 296 424 143 90 337
157 522 178 22 3 60 8 85 11 25 4 117 6 205 6 357 1 623 -76 883 -255 67 -46
214 -182 271 -251 32 -40 131 -192 131 -203 0 -5 6 -15 13 -22 6 -6 13 -16 13
-22 1 -5 2 -13 3 -19 0 -5 5 -10 10 -10 9 0 -2 49 -35 150 -22 68 -100 220
-152 297 -94 138 -241 295 -382 408 -41 33 -76 63 -78 68 -2 4 -7 7 -11 7 -5
0 -41 22 -82 49 -166 109 -379 196 -554 226 -44 8 -389 18 -396 11z"/>
<path d="M5446 5523 c-1 -1 -16 -3 -34 -5 -17 -1 -29 -4 -27 -7 4 -3 64 -10
115 -12 37 -2 173 -32 250 -56 47 -15 87 -27 90 -28 9 -3 104 -46 150 -68 48
-23 142 -77 150 -87 3 -3 23 -17 45 -32 69 -45 97 -70 205 -178 242 -242 392
-556 436 -910 16 -131 0 -399 -30 -498 -3 -9 -7 -28 -10 -42 -18 -105 -125
-346 -208 -470 -109 -162 -251 -307 -404 -413 -111 -76 -144 -93 -155 -75 -5
7 -9 20 -9 28 0 21 -88 194 -131 256 -121 179 -321 378 -550 547 -141 104
-445 297 -469 297 -5 0 -10 5 -10 11 0 5 -4 8 -9 4 -5 -3 -12 -1 -16 4 -7 13
-235 128 -357 182 -160 70 -297 119 -378 135 -13 3 -30 10 -37 16 -7 6 -13 8
-13 5 0 -3 -21 0 -46 8 l-46 14 5 -27 c2 -15 36 -127 75 -248 39 -122 73 -232
76 -245 2 -13 9 -36 15 -51 6 -16 8 -28 5 -28 -2 0 0 -8 5 -18 6 -11 12 -30
15 -43 3 -13 15 -60 26 -104 11 -44 23 -93 26 -110 2 -16 9 -46 14 -65 5 -19
14 -64 20 -100 6 -36 13 -77 16 -92 3 -16 3 -28 0 -28 -3 0 -53 34 -111 75
-58 41 -109 75 -114 75 -5 0 -11 3 -13 8 -3 8 -80 57 -149 95 -25 13 -54 30
-65 35 -136 77 -447 192 -564 209 -19 3 -43 10 -53 15 -10 5 -21 7 -24 4 -3
-2 -15 -1 -28 4 -13 5 -42 12 -66 15 -24 4 -46 8 -49 10 -5 3 -77 16 -115 20
-11 1 -31 5 -45 8 -14 3 -47 9 -75 12 -27 3 -63 8 -80 10 -16 3 -50 7 -75 10
-25 2 -67 7 -95 10 -49 5 -49 4 25 -21 41 -14 80 -26 85 -28 58 -15 254 -88
379 -140 132 -56 395 -191 526 -271 52 -32 104 -63 115 -69 22 -13 74 -46 90
-59 6 -4 62 -43 125 -86 63 -44 120 -83 125 -88 6 -4 46 -35 90 -68 44 -32 85
-63 90 -67 6 -5 39 -31 75 -59 36 -27 72 -55 80 -62 8 -7 38 -30 65 -52 28
-22 52 -42 55 -45 3 -3 37 -31 77 -62 l72 -58 -4 43 c-2 23 -6 80 -10 127 -6
86 -10 136 -20 245 -15 158 -25 248 -30 265 -2 8 -6 35 -9 60 -12 102 -66 345
-102 462 -13 43 345 -135 496 -246 130 -96 264 -242 315 -343 11 -21 23 -40
26 -43 3 -3 22 -43 42 -90 47 -110 85 -253 93 -349 7 -92 7 -85 5 -91 -1 -3
-4 -30 -6 -60 -5 -72 -14 -130 -21 -141 -3 -5 -7 -21 -10 -35 -10 -55 -91
-211 -144 -278 -143 -180 -401 -320 -666 -362 -20 -3 -46 -8 -58 -10 -73 -15
-379 -22 -436 -9 -14 3 -41 7 -60 10 -104 14 -254 57 -364 105 -25 10 -48 20
-51 20 -5 0 -121 62 -166 89 -99 57 -250 160 -269 182 -3 3 -14 12 -26 20 -92
63 -323 294 -429 428 -26 33 -50 61 -52 61 -8 0 120 -237 172 -317 50 -76 160
-226 190 -259 6 -6 30 -35 55 -64 59 -70 210 -222 285 -285 32 -27 63 -55 69
-60 20 -19 195 -145 201 -145 3 0 11 -5 18 -10 38 -32 235 -137 322 -172 53
-21 132 -48 150 -51 11 -2 27 -7 35 -10 8 -3 31 -8 50 -11 19 -3 58 -10 85
-15 48 -9 388 -8 450 2 17 3 53 8 80 12 145 21 315 70 450 131 22 10 42 18 45
19 29 5 235 137 305 195 67 56 184 180 229 243 46 65 50 68 119 88 154 45 283
96 407 162 128 66 271 154 278 170 2 4 8 7 13 7 5 0 19 9 31 19 13 10 59 48
103 83 90 71 235 213 310 303 28 33 55 65 61 72 29 31 168 248 207 324 63 122
128 298 153 410 3 13 7 33 9 44 11 48 16 73 23 120 9 60 9 330 0 400 -10 79
-37 211 -53 255 -8 22 -15 42 -15 45 0 3 -2 10 -5 17 -2 7 -11 36 -20 63 -16
50 -117 259 -156 325 -81 136 -277 362 -409 475 -72 61 -159 125 -169 125 -6
0 -11 5 -11 10 0 6 -8 14 -17 17 -10 4 -43 23 -73 43 -30 19 -95 56 -145 81
-77 40 -121 59 -252 110 -13 5 -33 13 -45 18 -13 5 -34 12 -48 15 -14 4 -59
15 -101 26 -87 23 -107 28 -169 36 -25 3 -47 7 -50 9 -16 9 -356 26 -364 18z"/>
</g>
</svg>
